<?xml version="1.0" encoding="UTF-8"?>
<!DOCTYPE svg PUBLIC "-//W3C//DTD SVG 1.1//EN" "http://www.w3.org/Graphics/SVG/1.1/DTD/svg11.dtd">
<svg width="160mm" height="90mm" viewBox="0 0 16000 9000" version="1.1" xmlns="http://www.w3.org/2000/svg" stroke-width="28.222" stroke-linejoin="round" xml:space="preserve">
 <path fill="rgb(255,255,255)" stroke="none" d="M 8000,8999 L 0,8999 0,0 15999,0 15999,8999 8000,8999 Z"/>
 <path fill="none" stroke="rgb(179,179,179)" stroke-linejoin="round" d="M 9956,8172 L 4566,8172 4566,1275 15346,1275 15346,8172 9956,8172 Z"/>
 <path fill="none" stroke="rgb(179,179,179)" stroke-linejoin="round" d="M 4566,1274 L 4566,8171"/>
 <path fill="none" stroke="rgb(179,179,179)" stroke-linejoin="round" d="M 5913,1274 L 5913,8171"/>
 <path fill="none" stroke="rgb(179,179,179)" stroke-linejoin="round" d="M 7261,1274 L 7261,8171"/>
 <path fill="none" stroke="rgb(179,179,179)" stroke-linejoin="round" d="M 8607,1274 L 8607,8171"/>
 <path fill="none" stroke="rgb(179,179,179)" stroke-linejoin="round" d="M 9955,1274 L 9955,8171"/>
 <path fill="none" stroke="rgb(179,179,179)" stroke-linejoin="round" d="M 11303,1274 L 11303,8171"/>
 <path fill="none" stroke="rgb(179,179,179)" stroke-linejoin="round" d="M 12650,1274 L 12650,8171"/>
 <path fill="none" stroke="rgb(179,179,179)" stroke-linejoin="round" d="M 13998,1274 L 13998,8171"/>
 <path fill="none" stroke="rgb(179,179,179)" stroke-linejoin="round" d="M 15346,1274 L 15346,8171"/>
 <path fill="none" stroke="rgb(179,179,179)" stroke-linejoin="round" d="M 4416,8171 L 4566,8171"/>
 <path fill="none" stroke="rgb(179,179,179)" stroke-linejoin="round" d="M 4416,8171 L 4566,8171"/>
 <path fill="none" stroke="rgb(179,179,179)" stroke-linejoin="round" d="M 4416,6791 L 4566,6791"/>
 <path fill="none" stroke="rgb(179,179,179)" stroke-linejoin="round" d="M 4416,6791 L 4566,6791"/>
 <path fill="none" stroke="rgb(179,179,179)" stroke-linejoin="round" d="M 4416,5411 L 4566,5411"/>
 <path fill="none" stroke="rgb(179,179,179)" stroke-linejoin="round" d="M 4416,5411 L 4566,5411"/>
 <path fill="none" stroke="rgb(179,179,179)" stroke-linejoin="round" d="M 4416,4033 L 4566,4033"/>
 <path fill="none" stroke="rgb(179,179,179)" stroke-linejoin="round" d="M 4416,4033 L 4566,4033"/>
 <path fill="none" stroke="rgb(179,179,179)" stroke-linejoin="round" d="M 4416,2653 L 4566,2653"/>
 <path fill="none" stroke="rgb(179,179,179)" stroke-linejoin="round" d="M 4416,2653 L 4566,2653"/>
 <path fill="none" stroke="rgb(179,179,179)" stroke-linejoin="round" d="M 4416,1274 L 4566,1274"/>
 <path fill="none" stroke="rgb(179,179,179)" stroke-linejoin="round" d="M 4416,1274 L 4566,1274"/>
 <path fill="none" stroke="rgb(179,179,179)" stroke-linejoin="round" d="M 4566,8171 L 4566,1274"/>
 <path fill="none" stroke="rgb(179,179,179)" stroke-linejoin="round" d="M 4566,8321 L 4566,8171"/>
 <path fill="none" stroke="rgb(179,179,179)" stroke-linejoin="round" d="M 4566,8321 L 4566,8171"/>
 <path fill="none" stroke="rgb(179,179,179)" stroke-linejoin="round" d="M 5913,8321 L 5913,8171"/>
 <path fill="none" stroke="rgb(179,179,179)" stroke-linejoin="round" d="M 5913,8321 L 5913,8171"/>
 <path fill="none" stroke="rgb(179,179,179)" stroke-linejoin="round" d="M 7261,8321 L 7261,8171"/>
 <path fill="none" stroke="rgb(179,179,179)" stroke-linejoin="round" d="M 7261,8321 L 7261,8171"/>
 <path fill="none" stroke="rgb(179,179,179)" stroke-linejoin="round" d="M 8607,8321 L 8607,8171"/>
 <path fill="none" stroke="rgb(179,179,179)" stroke-linejoin="round" d="M 8607,8321 L 8607,8171"/>
 <path fill="none" stroke="rgb(179,179,179)" stroke-linejoin="round" d="M 9955,8321 L 9955,8171"/>
 <path fill="none" stroke="rgb(179,179,179)" stroke-linejoin="round" d="M 9955,8321 L 9955,8171"/>
 <path fill="none" stroke="rgb(179,179,179)" stroke-linejoin="round" d="M 11303,8321 L 11303,8171"/>
 <path fill="none" stroke="rgb(179,179,179)" stroke-linejoin="round" d="M 11303,8321 L 11303,8171"/>
 <path fill="none" stroke="rgb(179,179,179)" stroke-linejoin="round" d="M 12650,8321 L 12650,8171"/>
 <path fill="none" stroke="rgb(179,179,179)" stroke-linejoin="round" d="M 12650,8321 L 12650,8171"/>
 <path fill="none" stroke="rgb(179,179,179)" stroke-linejoin="round" d="M 13998,8321 L 13998,8171"/>
 <path fill="none" stroke="rgb(179,179,179)" stroke-linejoin="round" d="M 13998,8321 L 13998,8171"/>
 <path fill="none" stroke="rgb(179,179,179)" stroke-linejoin="round" d="M 15346,8321 L 15346,8171"/>
 <path fill="none" stroke="rgb(179,179,179)" stroke-linejoin="round" d="M 15346,8321 L 15346,8171"/>
 <path fill="none" stroke="rgb(179,179,179)" stroke-linejoin="round" d="M 4566,8171 L 15346,8171"/>
 <path fill="rgb(0,69,134)" stroke="none" d="M 4566,2308 L 4566,1618 12371,1618 12371,2308 4566,2308 Z"/>
 <path fill="rgb(0,69,134)" stroke="none" d="M 4566,3688 L 4566,2998 12826,2998 12826,3688 4566,3688 Z"/>
 <path fill="rgb(0,69,134)" stroke="none" d="M 4566,5066 L 4566,4378 14529,4378 14529,5066 4566,5066 Z"/>
 <path fill="rgb(0,69,134)" stroke="none" d="M 4566,6446 L 4566,5756 14612,5756 14612,6446 4566,6446 Z"/>
 <path fill="rgb(0,69,134)" stroke="none" d="M 4566,7826 L 4566,7136 14688,7136 14688,7826 4566,7826 Z"/>
 <text class="TextShape"><tspan class="TextParagraph" font-family="Liberation Sans, sans-serif" font-size="353px" font-weight="400"><tspan class="TextPosition" x="268" y="7602"><tspan fill="rgb(0,0,0)" stroke="none">AMD Threadripper 2990wx</tspan></tspan></tspan></text>
 <text class="TextShape"><tspan class="TextParagraph" font-family="Liberation Sans, sans-serif" font-size="353px" font-weight="400"><tspan class="TextPosition" x="1088" y="6222"><tspan fill="rgb(0,0,0)" stroke="none">AMD Ryzen 7 2700X</tspan></tspan></tspan></text>
 <text class="TextShape"><tspan class="TextParagraph" font-family="Liberation Sans, sans-serif" font-size="353px" font-weight="400"><tspan class="TextPosition" x="321" y="4843"><tspan fill="rgb(0,0,0)" stroke="none">2x Intel Xeon Gold 6140M</tspan></tspan></tspan></text>
 <text class="TextShape"><tspan class="TextParagraph" font-family="Liberation Sans, sans-serif" font-size="353px" font-weight="400"><tspan class="TextPosition" x="1379" y="3463"><tspan fill="rgb(0,0,0)" stroke="none">Intel Core i7-7700K</tspan></tspan></tspan></text>
 <text class="TextShape"><tspan class="TextParagraph" font-family="Liberation Sans, sans-serif" font-size="353px" font-weight="400"><tspan class="TextPosition" x="1379" y="2083"><tspan fill="rgb(0,0,0)" stroke="none">Intel Core i7-8700K</tspan></tspan></tspan></text>
 <text class="TextShape"><tspan class="TextParagraph" font-family="Liberation Sans, sans-serif" font-size="353px" font-weight="400"><tspan class="TextPosition" x="4473" y="8739"><tspan fill="rgb(0,0,0)" stroke="none">0</tspan></tspan></tspan></text>
 <text class="TextShape"><tspan class="TextParagraph" font-family="Liberation Sans, sans-serif" font-size="353px" font-weight="400"><tspan class="TextPosition" x="5728" y="8739"><tspan fill="rgb(0,0,0)" stroke="none">50</tspan></tspan></tspan></text>
 <text class="TextShape"><tspan class="TextParagraph" font-family="Liberation Sans, sans-serif" font-size="353px" font-weight="400"><tspan class="TextPosition" x="6983" y="8739"><tspan fill="rgb(0,0,0)" stroke="none">100</tspan></tspan></tspan></text>
 <text class="TextShape"><tspan class="TextParagraph" font-family="Liberation Sans, sans-serif" font-size="353px" font-weight="400"><tspan class="TextPosition" x="8330" y="8739"><tspan fill="rgb(0,0,0)" stroke="none">150</tspan></tspan></tspan></text>
 <text class="TextShape"><tspan class="TextParagraph" font-family="Liberation Sans, sans-serif" font-size="353px" font-weight="400"><tspan class="TextPosition" x="9678" y="8739"><tspan fill="rgb(0,0,0)" stroke="none">200</tspan></tspan></tspan></text>
 <text class="TextShape"><tspan class="TextParagraph" font-family="Liberation Sans, sans-serif" font-size="353px" font-weight="400"><tspan class="TextPosition" x="11026" y="8739"><tspan fill="rgb(0,0,0)" stroke="none">250</tspan></tspan></tspan></text>
 <text class="TextShape"><tspan class="TextParagraph" font-family="Liberation Sans, sans-serif" font-size="353px" font-weight="400"><tspan class="TextPosition" x="12373" y="8739"><tspan fill="rgb(0,0,0)" stroke="none">300</tspan></tspan></tspan></text>
 <text class="TextShape"><tspan class="TextParagraph" font-family="Liberation Sans, sans-serif" font-size="353px" font-weight="400"><tspan class="TextPosition" x="13721" y="8739"><tspan fill="rgb(0,0,0)" stroke="none">350</tspan></tspan></tspan></text>
 <text class="TextShape"><tspan class="TextParagraph" font-family="Liberation Sans, sans-serif" font-size="353px" font-weight="400"><tspan class="TextPosition" x="15069" y="8739"><tspan fill="rgb(0,0,0)" stroke="none">400</tspan></tspan></tspan></text>
 <text class="TextShape"><tspan class="TextParagraph" font-family="Liberation Sans, sans-serif" font-size="459px" font-weight="400"><tspan class="TextPosition" x="4891" y="851"><tspan fill="rgb(0,0,0)" stroke="none">Compile time(s), lower is better</tspan></tspan></tspan></text>
</svg>