<?xml version="1.0" encoding="UTF-8"?>
<!DOCTYPE svg PUBLIC "-//W3C//DTD SVG 1.1//EN" "http://www.w3.org/Graphics/SVG/1.1/DTD/svg11.dtd">
<svg width="160mm" height="90mm" viewBox="0 0 16000 9000" version="1.1" xmlns="http://www.w3.org/2000/svg" stroke-width="28.222" stroke-linejoin="round" xml:space="preserve">
 <path fill="rgb(255,255,255)" stroke="none" d="M 8000,8999 L 0,8999 0,0 15999,0 15999,8999 8000,8999 Z"/>
 <path fill="none" stroke="rgb(179,179,179)" stroke-linejoin="round" d="M 10180,8172 L 5042,8172 5042,1275 15319,1275 15319,8172 10180,8172 Z"/>
 <path fill="none" stroke="rgb(179,179,179)" stroke-linejoin="round" d="M 5042,1274 L 5042,8171"/>
 <path fill="none" stroke="rgb(179,179,179)" stroke-linejoin="round" d="M 6326,1274 L 6326,8171"/>
 <path fill="none" stroke="rgb(179,179,179)" stroke-linejoin="round" d="M 7611,1274 L 7611,8171"/>
 <path fill="none" stroke="rgb(179,179,179)" stroke-linejoin="round" d="M 8895,1274 L 8895,8171"/>
 <path fill="none" stroke="rgb(179,179,179)" stroke-linejoin="round" d="M 10180,1274 L 10180,8171"/>
 <path fill="none" stroke="rgb(179,179,179)" stroke-linejoin="round" d="M 11464,1274 L 11464,8171"/>
 <path fill="none" stroke="rgb(179,179,179)" stroke-linejoin="round" d="M 12749,1274 L 12749,8171"/>
 <path fill="none" stroke="rgb(179,179,179)" stroke-linejoin="round" d="M 14034,1274 L 14034,8171"/>
 <path fill="none" stroke="rgb(179,179,179)" stroke-linejoin="round" d="M 15319,1274 L 15319,8171"/>
 <path fill="none" stroke="rgb(179,179,179)" stroke-linejoin="round" d="M 4892,8171 L 5042,8171"/>
 <path fill="none" stroke="rgb(179,179,179)" stroke-linejoin="round" d="M 4892,8171 L 5042,8171"/>
 <path fill="none" stroke="rgb(179,179,179)" stroke-linejoin="round" d="M 4892,6791 L 5042,6791"/>
 <path fill="none" stroke="rgb(179,179,179)" stroke-linejoin="round" d="M 4892,6791 L 5042,6791"/>
 <path fill="none" stroke="rgb(179,179,179)" stroke-linejoin="round" d="M 4892,5411 L 5042,5411"/>
 <path fill="none" stroke="rgb(179,179,179)" stroke-linejoin="round" d="M 4892,5411 L 5042,5411"/>
 <path fill="none" stroke="rgb(179,179,179)" stroke-linejoin="round" d="M 4892,4033 L 5042,4033"/>
 <path fill="none" stroke="rgb(179,179,179)" stroke-linejoin="round" d="M 4892,4033 L 5042,4033"/>
 <path fill="none" stroke="rgb(179,179,179)" stroke-linejoin="round" d="M 4892,2653 L 5042,2653"/>
 <path fill="none" stroke="rgb(179,179,179)" stroke-linejoin="round" d="M 4892,2653 L 5042,2653"/>
 <path fill="none" stroke="rgb(179,179,179)" stroke-linejoin="round" d="M 4892,1274 L 5042,1274"/>
 <path fill="none" stroke="rgb(179,179,179)" stroke-linejoin="round" d="M 4892,1274 L 5042,1274"/>
 <path fill="none" stroke="rgb(179,179,179)" stroke-linejoin="round" d="M 5042,8171 L 5042,1274"/>
 <path fill="none" stroke="rgb(179,179,179)" stroke-linejoin="round" d="M 5042,8321 L 5042,8171"/>
 <path fill="none" stroke="rgb(179,179,179)" stroke-linejoin="round" d="M 5042,8321 L 5042,8171"/>
 <path fill="none" stroke="rgb(179,179,179)" stroke-linejoin="round" d="M 6326,8321 L 6326,8171"/>
 <path fill="none" stroke="rgb(179,179,179)" stroke-linejoin="round" d="M 6326,8321 L 6326,8171"/>
 <path fill="none" stroke="rgb(179,179,179)" stroke-linejoin="round" d="M 7611,8321 L 7611,8171"/>
 <path fill="none" stroke="rgb(179,179,179)" stroke-linejoin="round" d="M 7611,8321 L 7611,8171"/>
 <path fill="none" stroke="rgb(179,179,179)" stroke-linejoin="round" d="M 8895,8321 L 8895,8171"/>
 <path fill="none" stroke="rgb(179,179,179)" stroke-linejoin="round" d="M 8895,8321 L 8895,8171"/>
 <path fill="none" stroke="rgb(179,179,179)" stroke-linejoin="round" d="M 10180,8321 L 10180,8171"/>
 <path fill="none" stroke="rgb(179,179,179)" stroke-linejoin="round" d="M 10180,8321 L 10180,8171"/>
 <path fill="none" stroke="rgb(179,179,179)" stroke-linejoin="round" d="M 11464,8321 L 11464,8171"/>
 <path fill="none" stroke="rgb(179,179,179)" stroke-linejoin="round" d="M 11464,8321 L 11464,8171"/>
 <path fill="none" stroke="rgb(179,179,179)" stroke-linejoin="round" d="M 12749,8321 L 12749,8171"/>
 <path fill="none" stroke="rgb(179,179,179)" stroke-linejoin="round" d="M 12749,8321 L 12749,8171"/>
 <path fill="none" stroke="rgb(179,179,179)" stroke-linejoin="round" d="M 14034,8321 L 14034,8171"/>
 <path fill="none" stroke="rgb(179,179,179)" stroke-linejoin="round" d="M 14034,8321 L 14034,8171"/>
 <path fill="none" stroke="rgb(179,179,179)" stroke-linejoin="round" d="M 15319,8321 L 15319,8171"/>
 <path fill="none" stroke="rgb(179,179,179)" stroke-linejoin="round" d="M 15319,8321 L 15319,8171"/>
 <path fill="none" stroke="rgb(179,179,179)" stroke-linejoin="round" d="M 5042,8171 L 15319,8171"/>
 <path fill="rgb(0,69,134)" stroke="none" d="M 5042,2308 L 5042,1618 11463,1618 11463,2308 5042,2308 Z"/>
 <path fill="rgb(0,69,134)" stroke="none" d="M 5042,3688 L 5042,2998 11496,2998 11496,3688 5042,3688 Z"/>
 <path fill="rgb(0,69,134)" stroke="none" d="M 5042,5066 L 5042,4378 13290,4378 13290,5066 5042,5066 Z"/>
 <path fill="rgb(0,69,134)" stroke="none" d="M 5042,6446 L 5042,5756 14284,5756 14284,6446 5042,6446 Z"/>
 <path fill="rgb(0,69,134)" stroke="none" d="M 5042,7826 L 5042,7136 14340,7136 14340,7826 5042,7826 Z"/>
 <text class="TextShape"><tspan class="TextParagraph" font-family="Liberation Sans, sans-serif" font-size="353px" font-weight="400"><tspan class="TextPosition" x="479" y="7602"><tspan fill="rgb(0,0,0)" stroke="none">2x Intel Xeon Gold 6140M   </tspan></tspan></tspan></text>
 <text class="TextShape"><tspan class="TextParagraph" font-family="Liberation Sans, sans-serif" font-size="353px" font-weight="400"><tspan class="TextPosition" x="321" y="6222"><tspan fill="rgb(0,0,0)" stroke="none">AMD Threadripper 2990wx    </tspan></tspan></tspan></text>
 <text class="TextShape"><tspan class="TextParagraph" font-family="Liberation Sans, sans-serif" font-size="353px" font-weight="400"><tspan class="TextPosition" x="506" y="4843"><tspan fill="rgb(0,0,0)" stroke="none">AMD Ryzen 7 2700X          </tspan></tspan></tspan></text>
 <text class="TextShape"><tspan class="TextParagraph" font-family="Liberation Sans, sans-serif" font-size="353px" font-weight="400"><tspan class="TextPosition" x="1008" y="3463"><tspan fill="rgb(0,0,0)" stroke="none">Intel Core i7-8700K        </tspan></tspan></tspan></text>
 <text class="TextShape"><tspan class="TextParagraph" font-family="Liberation Sans, sans-serif" font-size="353px" font-weight="400"><tspan class="TextPosition" x="241" y="2083"><tspan fill="rgb(0,0,0)" stroke="none">Intel Core i7-7700K@4.8GHz </tspan></tspan></tspan></text>
 <text class="TextShape"><tspan class="TextParagraph" font-family="Liberation Sans, sans-serif" font-size="353px" font-weight="400"><tspan class="TextPosition" x="4949" y="8739"><tspan fill="rgb(0,0,0)" stroke="none">0</tspan></tspan></tspan></text>
 <text class="TextShape"><tspan class="TextParagraph" font-family="Liberation Sans, sans-serif" font-size="353px" font-weight="400"><tspan class="TextPosition" x="6048" y="8739"><tspan fill="rgb(0,0,0)" stroke="none">100</tspan></tspan></tspan></text>
 <text class="TextShape"><tspan class="TextParagraph" font-family="Liberation Sans, sans-serif" font-size="353px" font-weight="400"><tspan class="TextPosition" x="7333" y="8739"><tspan fill="rgb(0,0,0)" stroke="none">200</tspan></tspan></tspan></text>
 <text class="TextShape"><tspan class="TextParagraph" font-family="Liberation Sans, sans-serif" font-size="353px" font-weight="400"><tspan class="TextPosition" x="8618" y="8739"><tspan fill="rgb(0,0,0)" stroke="none">300</tspan></tspan></tspan></text>
 <text class="TextShape"><tspan class="TextParagraph" font-family="Liberation Sans, sans-serif" font-size="353px" font-weight="400"><tspan class="TextPosition" x="9903" y="8739"><tspan fill="rgb(0,0,0)" stroke="none">400</tspan></tspan></tspan></text>
 <text class="TextShape"><tspan class="TextParagraph" font-family="Liberation Sans, sans-serif" font-size="353px" font-weight="400"><tspan class="TextPosition" x="11187" y="8739"><tspan fill="rgb(0,0,0)" stroke="none">500</tspan></tspan></tspan></text>
 <text class="TextShape"><tspan class="TextParagraph" font-family="Liberation Sans, sans-serif" font-size="353px" font-weight="400"><tspan class="TextPosition" x="12472" y="8739"><tspan fill="rgb(0,0,0)" stroke="none">600</tspan></tspan></tspan></text>
 <text class="TextShape"><tspan class="TextParagraph" font-family="Liberation Sans, sans-serif" font-size="353px" font-weight="400"><tspan class="TextPosition" x="13757" y="8739"><tspan fill="rgb(0,0,0)" stroke="none">700</tspan></tspan></tspan></text>
 <text class="TextShape"><tspan class="TextParagraph" font-family="Liberation Sans, sans-serif" font-size="353px" font-weight="400"><tspan class="TextPosition" x="15042" y="8739"><tspan fill="rgb(0,0,0)" stroke="none">800</tspan></tspan></tspan></text>
 <text class="TextShape"><tspan class="TextParagraph" font-family="Liberation Sans, sans-serif" font-size="459px" font-weight="400"><tspan class="TextPosition" x="4891" y="851"><tspan fill="rgb(0,0,0)" stroke="none">Compile time(s), lower is better</tspan></tspan></tspan></text>
</svg>